<?xml version="1.0" ?><!DOCTYPE svg  PUBLIC '-//W3C//DTD SVG 1.1//EN'  'http://www.w3.org/Graphics/SVG/1.1/DTD/svg11.dtd'><svg height="2048px" style="shape-rendering:geometricPrecision; text-rendering:geometricPrecision; image-rendering:optimizeQuality; fill-rule:evenodd; clip-rule:evenodd" viewBox="0 0 2048 2048" width="2048px" xml:space="preserve" xmlns="http://www.w3.org/2000/svg" xmlns:xlink="http://www.w3.org/1999/xlink"><defs><style type="text/css">
   <![CDATA[
    .fil2 {fill:none}
    .fil0 {fill:#008852}
    .fil1 {fill:#FFFFFE;fill-rule:nonzero}
   ]]>
  </style></defs><g id="Layer_x0020_1"><g id="_251949952"><rect class="fil0" height="1536" id="_251949976" rx="312.65" ry="312.65" width="1536" x="255.999" y="256"/><path class="fil1" d="M892.361 1024c0,1.21772 -0.0838583,2.42481 -0.207874,3.62953l333.635 166.81c14.7886,-11.6162 31.3772,-21.0851 49.3394,-27.7784 19.2248,-7.16221 39.9107,-11.1284 61.5249,-11.1284 50.0056,0 95.2713,20.263 128.036,53.028 32.7638,32.765 53.0268,78.0308 53.0268,128.035 0,50.0008 -20.2606,95.2666 -53.0209,128.039 -32.7898,32.8004 -78.0615,53.0811 -128.042,53.0811 -49.9996,0 -95.2489,-20.2736 -128.017,-53.0611 -32.7532,-32.7744 -52.9961,-78.0461 -52.9961,-128.059 0,-1.24843 0.0838583,-2.46969 0.206693,-3.67914l-333.649 -166.766c-14.8347,11.5795 -31.4469,21.0343 -49.4363,27.7193 -19.1917,7.13032 -39.8292,11.087 -61.4126,11.087 -49.9784,0 -95.2335,-20.2477 -128,-52.9937 -32.7862,-32.7662 -53.0634,-78.006 -53.0634,-127.963 0,-50.002 20.2606,-95.2666 53.0209,-128.038 32.7898,-32.8016 78.0615,-53.0835 128.042,-53.0835 21.5799,0 42.2209,3.96733 61.4103,11.1083 17.9445,6.67796 34.5555,16.1539 49.4115,27.7689l333.681 -166.782c-0.125197,-1.23307 -0.211417,-2.47441 -0.211417,-3.73347 0,-49.9406 20.2654,-95.1957 53.0563,-127.974 32.7414,-32.7319 77.9694,-52.9819 127.957,-52.9819 49.9713,0 95.2194,20.2583 127.983,53.002 32.7957,32.7756 53.08,78.0225 53.08,127.954 0,50.0067 -20.2595,95.2702 -53.0185,128.04 -32.7898,32.8004 -78.0615,53.0811 -128.045,53.0811 -21.6496,0 -42.3319,-3.97323 -61.5343,-11.1366 -17.9788,-6.70867 -34.5603,-16.1953 -49.3359,-27.8197l-333.631 166.873c0.125197,1.22835 0.210236,2.46496 0.210236,3.72166z" id="_251949856"/></g></g><rect class="fil2" height="2048" width="2048"/></svg>